<?xml version="1.0" encoding="UTF-8"?><svg id="Laag_1" xmlns="http://www.w3.org/2000/svg" viewBox="0 0 425.2 425.2"><defs><style>.cls-1{fill:#fff;}.cls-2{fill:#f07f3b;}.cls-3{fill:#004996;fill-rule:evenodd;}</style></defs><polygon class="cls-3" points="0 425.2 0 0 425.2 0 425.2 425.2 .46 425.2 0 425.2 0 425.2"/><path class="cls-1" d="M354.26,314.52v35.98s-243.98,.04-243.98,.04l4.12-6.67c38.11-1.21,73.76-10.85,108.7-29.36h131.15Z"/><path class="cls-2" d="M354.25,299.87v7.75s-132.65,0-132.65,0c-36.11,19.37-75.48,30.13-119.31,29.46-15.35-.48-37.72-3.11-51.88-6.81v-51.36c14.15-3.45,36.53-5.89,51.87-6.34,43.83-.62,83.2,9.35,119.32,27.34l132.65-.04Z"/><path class="cls-1" d="M354.24,253.96v39.54s-131.15,.02-131.15,.02c-11.09-5.45-22.23-10.07-33.51-13.87,7.52-1.61,15.48-3.6,23.23-6.2,17.51-5.1,33.52-12.63,47-19.46l94.43-.02Z"/><path class="cls-2" d="M354.25,239.93v7.63s-95.96,.02-95.96,.02c-15.29,7.79-30.86,14.96-47.38,19.76-10.73,3.61-21.95,6.04-33.29,8.17-8.12-2.31-16.3-4.51-24.83-5.91-17.38-3.33-35.58-3.93-54.53-3.48l-10.79,.73-.1-47.88c14.16-3.45,36.54-5.9,51.88-6.35,43.83-.63,83.21,9.35,119.31,27.34l95.68-.04Z"/><path class="cls-1" d="M354.24,194.02v39.5s-94.17,.05-94.17,.05c-11.08-5.46-22.23-10.07-33.51-13.89,7.52-1.61,15.49-3.59,23.24-6.2,17.5-5.1,33.51-12.63,46.99-19.46h57.45Z"/><path class="cls-2" d="M354.24,179.98v7.64l-58.97,.02c-15.29,7.79-30.86,14.95-47.39,19.75-10.72,3.61-21.95,6.04-33.29,8.18-8.12-2.31-16.29-4.5-24.81-5.92-17.37-3.32-35.59-3.93-54.54-3.48l-10.8,.74-.09-47.89c14.16-3.44,36.53-5.88,51.88-6.34,43.83-.63,83.21,9.36,119.31,27.34l58.7-.04Z"/><path class="cls-1" d="M354.22,134.08v39.5s-57.2,.03-57.2,.03c-11.08-5.44-22.22-10.07-33.5-13.87,7.52-1.61,15.49-3.61,23.23-6.22,17.51-5.08,33.52-12.62,47-19.45h20.47Z"/><path class="cls-2" d="M354.22,120.04v7.65h-22c-15.29,7.79-30.86,14.95-47.38,19.75-10.72,3.62-21.94,6.05-33.28,8.19-8.12-2.32-16.3-4.51-24.83-5.92-17.38-3.33-35.59-3.92-54.53-3.47l-10.8,.73-.09-47.89c14.16-3.44,36.53-5.89,51.87-6.34,43.83-.62,83.21,9.35,119.32,27.34l21.72-.02Z"/><path class="cls-1" d="M354.22,73.24v40.39s-20.22,.03-20.22,.03c-20.91-10.28-42.07-17.61-63.86-22.08l11.31-18.33h72.77Z"/><path class="cls-1" d="M226.55,219.69h0s0,0,0,0t0,0"/></svg>
